<?xml version="1.0" encoding="UTF-8"?>
<!DOCTYPE svg PUBLIC "-//W3C//DTD SVG 1.1//EN" "http://www.w3.org/Graphics/SVG/1.1/DTD/svg11.dtd">
<!-- Creator: CorelDRAW 2018 (64 Bit Versión de evaluación) -->
<svg xmlns="http://www.w3.org/2000/svg" xml:space="preserve" width="210mm" height="297mm" version="1.1" style="shape-rendering:geometricPrecision; text-rendering:geometricPrecision; image-rendering:optimizeQuality; fill-rule:evenodd; clip-rule:evenodd"
viewBox="0 0 21000 29700"
 xmlns:xlink="http://www.w3.org/1999/xlink">
 <defs>
  <style type="text/css">
   <![CDATA[
    .fil0 {fill:black}
   ]]>
  </style>
 </defs>
 <g id="Capa_x0020_1">
  <metadata id="CorelCorpID_0Corel-Layer"/>
  <g id="_2038899802416">
   <path class="fil0" d="M3877.45 5691.54c0,527.88 209.82,952.53 538.41,1314.7 142.54,157.1 407.4,336.56 585.92,455.19 288.52,191.73 827.37,398.82 1148.36,517.38 430.71,159.12 1079.62,450.42 1079.62,1002.55 0,235.28 -1.16,346.46 -117.95,548.39 -358.86,620.45 -1514.44,527.74 -2071.1,349.71l-393.31 -148.07c-214.3,-95.44 -251.86,-167.01 -436.82,-167.01 -201.81,0 -249.25,258.69 -304.46,424.3 -207.83,623.28 -447.9,796.21 716.34,1121.06 1074.06,299.69 2380.87,268.72 3250,-382.1 503.52,-377.01 856.45,-957.62 856.45,-1787.91 0,-492.28 -145.72,-874.89 -428.16,-1237.59 -475.78,-610.95 -1408.21,-929.31 -2115.03,-1216.45 -562.43,-228.52 -1045.34,-682.77 -704.51,-1272.58 68.72,-118.9 121.91,-160.41 240.64,-238.25 404.16,-264.86 1130.11,-235.89 1573.13,-98.15 467.8,145.44 710.01,421.35 869.3,21.15l197.48 -552.11c55.09,-160.71 176.6,-343.41 -125.1,-494.02 -861.86,-430.2 -2310.42,-491.85 -3207.24,-6.54 -136.76,74 -246.07,147.36 -366.78,237.03 -419.52,311.66 -785.19,883.74 -785.19,1609.32z"/>
   <path class="fil0" d="M8916.3 11021.92c0,238.82 527.49,166.56 832.88,166.56 109.79,0 183.69,-30.44 223.53,-109.63l683.58 -1648.45c128.67,-323.69 264.22,-616 392.89,-939.71 362.01,-910.84 800.25,-1907.56 1175.04,-2822.73l487.55 -1178.19c394.47,-992.76 527.96,-880.42 -630.56,-880.42 -162.31,0 -189.8,185.06 -267.49,377.99l-1261.53 3048.56c-34.34,86.08 -61.26,159.88 -95.62,237.54 -134.84,304.95 -249.81,611.72 -383.03,928.75 -135.36,322.14 -257.93,621.78 -389.58,943.01l-767.66 1876.72z"/>
   <path class="fil0" d="M12768.34 10251.5c0,246.57 80.27,416.92 208.17,562.24 295.14,335.27 862.64,326.25 1181.12,35.83 132.77,-121.07 215.31,-297.45 234.81,-488.14l0 -175.66c-19.43,-192.52 -103.61,-386.87 -264.84,-543.95 -204.19,-198.93 -617.62,-251.7 -901.64,-119.54 -278.59,129.65 -457.62,417.58 -457.62,729.22z"/>
  </g>
 </g>
</svg>
